<?xml version="1.0" encoding="UTF-8" standalone="no"?>
<svg
   width="90"
   height="60"
   viewBox="0 0 90 60"
   version="1.1"
   id="svg1"
   sodipodi:docname="flag-nl.svg"
   inkscape:version="1.3 (0e150ed6c4, 2023-07-21)"
   xmlns:inkscape="http://www.inkscape.org/namespaces/inkscape"
   xmlns:sodipodi="http://sodipodi.sourceforge.net/DTD/sodipodi-0.dtd"
   xmlns="http://www.w3.org/2000/svg"
   xmlns:svg="http://www.w3.org/2000/svg">
  <sodipodi:namedview
     id="namedview1"
     pagecolor="#505050"
     bordercolor="#ffffff"
     borderopacity="1"
     inkscape:showpageshadow="0"
     inkscape:pageopacity="0"
     inkscape:pagecheckerboard="1"
     inkscape:deskcolor="#505050"
     showgrid="true"
     inkscape:zoom="6.9"
     inkscape:cx="31.884058"
     inkscape:cy="29.202899"
     inkscape:window-width="1920"
     inkscape:window-height="1027"
     inkscape:window-x="-8"
     inkscape:window-y="634"
     inkscape:window-maximized="1"
     inkscape:current-layer="svg1">
    <inkscape:grid
       id="grid7"
       units="px"
       originx="0"
       originy="0"
       spacingx="1"
       spacingy="1"
       empcolor="#0099e5"
       empopacity="0.30196078"
       color="#0099e5"
       opacity="0.14901961"
       empspacing="5"
       dotted="false"
       gridanglex="30"
       gridanglez="30"
       visible="true" />
  </sodipodi:namedview>
  <defs
     id="defs1" />
  <rect
     style="fill:#ff0000;stroke-width:1.88976"
     id="rect7"
     width="90"
     height="5"
     x="0"
     y="55" />
  <rect
     style="fill:#ff0000;stroke-width:5.26542"
     id="rect8"
     width="90"
     height="5.0090437"
     x="0"
     y="46" />
  <rect
     style="fill:#ff0000;stroke-width:5.26542"
     id="rect9"
     width="90"
     height="5.0090437"
     x="0"
     y="37" />
  <rect
     style="fill:#ff0000;stroke-width:1.47729"
     id="rect7-8"
     width="55"
     height="5"
     x="35"
     y="28" />
  <rect
     style="fill:#ff0000;stroke-width:4.11617"
     id="rect8-8"
     width="55"
     height="5.0090437"
     x="35"
     y="19" />
  <rect
     style="fill:#ff0000;stroke-width:4.11617"
     id="rect9-0"
     width="55"
     height="5.0090437"
     x="35"
     y="10" />
  <rect
     style="fill:#ff0000;stroke-width:4.11617"
     id="rect9-0-3"
     width="55"
     height="5.0090437"
     x="35"
     y="0" />
  <rect
     style="fill:#0000ff;fill-opacity:1;stroke-width:1.88976"
     id="rect10"
     width="35"
     height="33"
     x="0"
     y="0" />
  <rect
     style="fill:#ffffff;fill-opacity:1;stroke-width:1.88976"
     id="rect11"
     width="90"
     height="4"
     x="0"
     y="51" />
  <rect
     style="fill:#ffffff;fill-opacity:1;stroke-width:1.88976"
     id="rect11-2"
     width="90"
     height="4"
     x="0"
     y="42.009045" />
  <rect
     style="fill:#ffffff;fill-opacity:1;stroke-width:1.88976"
     id="rect11-5"
     width="90"
     height="4"
     x="0"
     y="33" />
  <rect
     style="fill:#ffffff;fill-opacity:1;stroke-width:1.47729"
     id="rect11-9"
     width="55"
     height="4"
     x="35"
     y="23.990955" />
  <rect
     style="fill:#ffffff;fill-opacity:1;stroke-width:1.47729"
     id="rect11-9-1"
     width="55"
     height="4"
     x="35"
     y="15.009044" />
  <rect
     style="fill:#ffffff;fill-opacity:1;stroke-width:1.65057"
     id="rect11-9-0"
     width="55"
     height="4.9933815"
     x="35"
     y="5.006619" />
  <path
     sodipodi:type="star"
     style="fill:#ffffff;fill-opacity:1;stroke-width:1.88976"
     id="path11-5"
     inkscape:flatsided="false"
     sodipodi:sides="5"
     sodipodi:cx="95"
     sodipodi:cy="8"
     sodipodi:r1="2"
     sodipodi:r2="0.99999994"
     sodipodi:arg1="-1.5707963"
     sodipodi:arg2="-0.9424778"
     inkscape:rounded="0"
     inkscape:randomized="0"
     d="m 95,6 0.587785,1.1909831 1.314328,0.190983 L 95.951056,8.309017 96.17557,9.618034 95,8.9999999 93.824429,9.618034 94.048944,8.309017 93.097887,7.381966 94.412215,7.1909831 Z"
     inkscape:transform-center-y="-0.19098301"
     transform="translate(-92.587785,-5.1909831)" />
  <path
     sodipodi:type="star"
     style="fill:#ffffff;fill-opacity:1;stroke-width:1.88976"
     id="path11-5-2"
     inkscape:flatsided="false"
     sodipodi:sides="5"
     sodipodi:cx="95"
     sodipodi:cy="8"
     sodipodi:r1="2"
     sodipodi:r2="0.99999994"
     sodipodi:arg1="-1.5707963"
     sodipodi:arg2="-0.9424778"
     inkscape:rounded="0"
     inkscape:randomized="0"
     d="m 95,6 0.587785,1.1909831 1.314328,0.190983 L 95.951056,8.309017 96.17557,9.618034 95,8.9999999 93.824429,9.618034 94.048944,8.309017 93.097887,7.381966 94.412215,7.1909831 Z"
     inkscape:transform-center-y="-0.19098301"
     transform="translate(-86.587785,-5.1909831)" />
  <path
     sodipodi:type="star"
     style="fill:#ffffff;fill-opacity:1;stroke-width:1.88976"
     id="path11-5-1"
     inkscape:flatsided="false"
     sodipodi:sides="5"
     sodipodi:cx="95"
     sodipodi:cy="8"
     sodipodi:r1="2"
     sodipodi:r2="0.99999994"
     sodipodi:arg1="-1.5707963"
     sodipodi:arg2="-0.9424778"
     inkscape:rounded="0"
     inkscape:randomized="0"
     d="m 95,6 0.587785,1.1909831 1.314328,0.190983 L 95.951056,8.309017 96.17557,9.618034 95,8.9999999 93.824429,9.618034 94.048944,8.309017 93.097887,7.381966 94.412215,7.1909831 Z"
     inkscape:transform-center-y="-0.19098301"
     transform="translate(-80.587785,-5.1909831)" />
  <path
     sodipodi:type="star"
     style="fill:#ffffff;fill-opacity:1;stroke-width:1.88976"
     id="path11-5-38"
     inkscape:flatsided="false"
     sodipodi:sides="5"
     sodipodi:cx="95"
     sodipodi:cy="8"
     sodipodi:r1="2"
     sodipodi:r2="0.99999994"
     sodipodi:arg1="-1.5707963"
     sodipodi:arg2="-0.9424778"
     inkscape:rounded="0"
     inkscape:randomized="0"
     d="m 95,6 0.587785,1.1909831 1.314328,0.190983 L 95.951056,8.309017 96.17557,9.618034 95,8.9999999 93.824429,9.618034 94.048944,8.309017 93.097887,7.381966 94.412215,7.1909831 Z"
     inkscape:transform-center-y="-0.19098301"
     transform="translate(-74.587785,-5.1909831)" />
  <path
     sodipodi:type="star"
     style="fill:#ffffff;fill-opacity:1;stroke-width:1.88976"
     id="path11-5-38-8"
     inkscape:flatsided="false"
     sodipodi:sides="5"
     sodipodi:cx="95"
     sodipodi:cy="8"
     sodipodi:r1="2"
     sodipodi:r2="0.99999994"
     sodipodi:arg1="-1.5707963"
     sodipodi:arg2="-0.9424778"
     inkscape:rounded="0"
     inkscape:randomized="0"
     d="m 95,6 0.587785,1.1909831 1.314328,0.190983 L 95.951056,8.309017 96.17557,9.618034 95,8.9999999 93.824429,9.618034 94.048944,8.309017 93.097887,7.381966 94.412215,7.1909831 Z"
     inkscape:transform-center-y="-0.19098301"
     transform="translate(-68.587785,-5.1909831)" />
  <path
     sodipodi:type="star"
     style="fill:#ffffff;fill-opacity:1;stroke-width:1.88976"
     id="path11-5-8"
     inkscape:flatsided="false"
     sodipodi:sides="5"
     sodipodi:cx="95"
     sodipodi:cy="8"
     sodipodi:r1="2"
     sodipodi:r2="0.99999994"
     sodipodi:arg1="-1.5707963"
     sodipodi:arg2="-0.9424778"
     inkscape:rounded="0"
     inkscape:randomized="0"
     d="m 95,6 0.587785,1.1909831 1.314328,0.190983 L 95.951056,8.309017 96.17557,9.618034 95,8.9999999 93.824429,9.618034 94.048944,8.309017 93.097887,7.381966 94.412215,7.1909831 Z"
     inkscape:transform-center-y="-0.19098301"
     transform="translate(-89.587785,-1.1909831)" />
  <path
     sodipodi:type="star"
     style="fill:#ffffff;fill-opacity:1;stroke-width:1.88976"
     id="path11-5-2-80"
     inkscape:flatsided="false"
     sodipodi:sides="5"
     sodipodi:cx="95"
     sodipodi:cy="8"
     sodipodi:r1="2"
     sodipodi:r2="0.99999994"
     sodipodi:arg1="-1.5707963"
     sodipodi:arg2="-0.9424778"
     inkscape:rounded="0"
     inkscape:randomized="0"
     d="m 95,6 0.587785,1.1909831 1.314328,0.190983 L 95.951056,8.309017 96.17557,9.618034 95,8.9999999 93.824429,9.618034 94.048944,8.309017 93.097887,7.381966 94.412215,7.1909831 Z"
     inkscape:transform-center-y="-0.19098301"
     transform="translate(-83.587785,-1.1909831)" />
  <path
     sodipodi:type="star"
     style="fill:#ffffff;fill-opacity:1;stroke-width:1.88976"
     id="path11-5-1-9"
     inkscape:flatsided="false"
     sodipodi:sides="5"
     sodipodi:cx="95"
     sodipodi:cy="8"
     sodipodi:r1="2"
     sodipodi:r2="0.99999994"
     sodipodi:arg1="-1.5707963"
     sodipodi:arg2="-0.9424778"
     inkscape:rounded="0"
     inkscape:randomized="0"
     d="m 95,6 0.587785,1.1909831 1.314328,0.190983 L 95.951056,8.309017 96.17557,9.618034 95,8.9999999 93.824429,9.618034 94.048944,8.309017 93.097887,7.381966 94.412215,7.1909831 Z"
     inkscape:transform-center-y="-0.19098301"
     transform="translate(-77.587785,-1.1909831)" />
  <path
     sodipodi:type="star"
     style="fill:#ffffff;fill-opacity:1;stroke-width:1.88976"
     id="path11-5-38-1"
     inkscape:flatsided="false"
     sodipodi:sides="5"
     sodipodi:cx="95"
     sodipodi:cy="8"
     sodipodi:r1="2"
     sodipodi:r2="0.99999994"
     sodipodi:arg1="-1.5707963"
     sodipodi:arg2="-0.9424778"
     inkscape:rounded="0"
     inkscape:randomized="0"
     d="m 95,6 0.587785,1.1909831 1.314328,0.190983 L 95.951056,8.309017 96.17557,9.618034 95,8.9999999 93.824429,9.618034 94.048944,8.309017 93.097887,7.381966 94.412215,7.1909831 Z"
     inkscape:transform-center-y="-0.19098301"
     transform="translate(-71.587785,-1.1909831)" />
  <path
     sodipodi:type="star"
     style="fill:#ffffff;fill-opacity:1;stroke-width:1.88976"
     id="path11-5-38-8-5"
     inkscape:flatsided="false"
     sodipodi:sides="5"
     sodipodi:cx="95"
     sodipodi:cy="8"
     sodipodi:r1="2"
     sodipodi:r2="0.99999994"
     sodipodi:arg1="-1.5707963"
     sodipodi:arg2="-0.9424778"
     inkscape:rounded="0"
     inkscape:randomized="0"
     d="m 95,6 0.587785,1.1909831 1.314328,0.190983 L 95.951056,8.309017 96.17557,9.618034 95,8.9999999 93.824429,9.618034 94.048944,8.309017 93.097887,7.381966 94.412215,7.1909831 Z"
     inkscape:transform-center-y="-0.19098301"
     transform="translate(-65.587785,-1.1909831)" />
  <path
     sodipodi:type="star"
     style="fill:#ffffff;fill-opacity:1;stroke-width:1.88976"
     id="path11-5-5"
     inkscape:flatsided="false"
     sodipodi:sides="5"
     sodipodi:cx="95"
     sodipodi:cy="8"
     sodipodi:r1="2"
     sodipodi:r2="0.99999994"
     sodipodi:arg1="-1.5707963"
     sodipodi:arg2="-0.9424778"
     inkscape:rounded="0"
     inkscape:randomized="0"
     d="m 95,6 0.587785,1.1909831 1.314328,0.190983 L 95.951056,8.309017 96.17557,9.618034 95,8.9999999 93.824429,9.618034 94.048944,8.309017 93.097887,7.381966 94.412215,7.1909831 Z"
     inkscape:transform-center-y="-0.19098301"
     transform="translate(-89.500003,5.4049527)" />
  <path
     sodipodi:type="star"
     style="fill:#ffffff;fill-opacity:1;stroke-width:1.88976"
     id="path11-5-2-7"
     inkscape:flatsided="false"
     sodipodi:sides="5"
     sodipodi:cx="95"
     sodipodi:cy="8"
     sodipodi:r1="2"
     sodipodi:r2="0.99999994"
     sodipodi:arg1="-1.5707963"
     sodipodi:arg2="-0.9424778"
     inkscape:rounded="0"
     inkscape:randomized="0"
     d="m 95,6 0.587785,1.1909831 1.314328,0.190983 L 95.951056,8.309017 96.17557,9.618034 95,8.9999999 93.824429,9.618034 94.048944,8.309017 93.097887,7.381966 94.412215,7.1909831 Z"
     inkscape:transform-center-y="-0.19098301"
     transform="translate(-83.5,5.4049527)" />
  <path
     sodipodi:type="star"
     style="fill:#ffffff;fill-opacity:1;stroke-width:1.88976"
     id="path11-5-1-1"
     inkscape:flatsided="false"
     sodipodi:sides="5"
     sodipodi:cx="95"
     sodipodi:cy="8"
     sodipodi:r1="2"
     sodipodi:r2="0.99999994"
     sodipodi:arg1="-1.5707963"
     sodipodi:arg2="-0.9424778"
     inkscape:rounded="0"
     inkscape:randomized="0"
     d="m 95,6 0.587785,1.1909831 1.314328,0.190983 L 95.951056,8.309017 96.17557,9.618034 95,8.9999999 93.824429,9.618034 94.048944,8.309017 93.097887,7.381966 94.412215,7.1909831 Z"
     inkscape:transform-center-y="-0.19098301"
     transform="translate(-77.5,5.4049527)" />
  <path
     sodipodi:type="star"
     style="fill:#ffffff;fill-opacity:1;stroke-width:1.88976"
     id="path11-5-38-4"
     inkscape:flatsided="false"
     sodipodi:sides="5"
     sodipodi:cx="95"
     sodipodi:cy="8"
     sodipodi:r1="2"
     sodipodi:r2="0.99999994"
     sodipodi:arg1="-1.5707963"
     sodipodi:arg2="-0.9424778"
     inkscape:rounded="0"
     inkscape:randomized="0"
     d="m 95,6 0.587785,1.1909831 1.314328,0.190983 L 95.951056,8.309017 96.17557,9.618034 95,8.9999999 93.824429,9.618034 94.048944,8.309017 93.097887,7.381966 94.412215,7.1909831 Z"
     inkscape:transform-center-y="-0.19098301"
     transform="translate(-71.5,5.4049527)" />
  <path
     sodipodi:type="star"
     style="fill:#ffffff;fill-opacity:1;stroke-width:1.88976"
     id="path11-5-38-8-9"
     inkscape:flatsided="false"
     sodipodi:sides="5"
     sodipodi:cx="95"
     sodipodi:cy="8"
     sodipodi:r1="2"
     sodipodi:r2="0.99999994"
     sodipodi:arg1="-1.5707963"
     sodipodi:arg2="-0.9424778"
     inkscape:rounded="0"
     inkscape:randomized="0"
     d="m 95,6 0.587785,1.1909831 1.314328,0.190983 L 95.951056,8.309017 96.17557,9.618034 95,8.9999999 93.824429,9.618034 94.048944,8.309017 93.097887,7.381966 94.412215,7.1909831 Z"
     inkscape:transform-center-y="-0.19098301"
     transform="translate(-65.5,5.4049527)" />
  <path
     sodipodi:type="star"
     style="fill:#ffffff;fill-opacity:1;stroke-width:1.88976"
     id="path11-5-18"
     inkscape:flatsided="false"
     sodipodi:sides="5"
     sodipodi:cx="95"
     sodipodi:cy="8"
     sodipodi:r1="2"
     sodipodi:r2="0.99999994"
     sodipodi:arg1="-1.5707963"
     sodipodi:arg2="-0.9424778"
     inkscape:rounded="0"
     inkscape:randomized="0"
     d="m 95,6 0.587785,1.1909831 1.314328,0.190983 L 95.951056,8.309017 96.17557,9.618034 95,8.9999999 93.824429,9.618034 94.048944,8.309017 93.097887,7.381966 94.412215,7.1909831 Z"
     inkscape:transform-center-y="-0.19098301"
     transform="translate(-89.587785,12.618034)" />
  <path
     sodipodi:type="star"
     style="fill:#ffffff;fill-opacity:1;stroke-width:1.88976"
     id="path11-5-2-1"
     inkscape:flatsided="false"
     sodipodi:sides="5"
     sodipodi:cx="95"
     sodipodi:cy="8"
     sodipodi:r1="2"
     sodipodi:r2="0.99999994"
     sodipodi:arg1="-1.5707963"
     sodipodi:arg2="-0.9424778"
     inkscape:rounded="0"
     inkscape:randomized="0"
     d="m 95,6 0.587785,1.1909831 1.314328,0.190983 L 95.951056,8.309017 96.17557,9.618034 95,8.9999999 93.824429,9.618034 94.048944,8.309017 93.097887,7.381966 94.412215,7.1909831 Z"
     inkscape:transform-center-y="-0.19098301"
     transform="translate(-83.587785,12.618034)" />
  <path
     sodipodi:type="star"
     style="fill:#ffffff;fill-opacity:1;stroke-width:1.88976"
     id="path11-5-1-8"
     inkscape:flatsided="false"
     sodipodi:sides="5"
     sodipodi:cx="95"
     sodipodi:cy="8"
     sodipodi:r1="2"
     sodipodi:r2="0.99999994"
     sodipodi:arg1="-1.5707963"
     sodipodi:arg2="-0.9424778"
     inkscape:rounded="0"
     inkscape:randomized="0"
     d="m 95,6 0.587785,1.1909831 1.314328,0.190983 L 95.951056,8.309017 96.17557,9.618034 95,8.9999999 93.824429,9.618034 94.048944,8.309017 93.097887,7.381966 94.412215,7.1909831 Z"
     inkscape:transform-center-y="-0.19098301"
     transform="translate(-77.587785,12.618034)" />
  <path
     sodipodi:type="star"
     style="fill:#ffffff;fill-opacity:1;stroke-width:1.88976"
     id="path11-5-38-5"
     inkscape:flatsided="false"
     sodipodi:sides="5"
     sodipodi:cx="95"
     sodipodi:cy="8"
     sodipodi:r1="2"
     sodipodi:r2="0.99999994"
     sodipodi:arg1="-1.5707963"
     sodipodi:arg2="-0.9424778"
     inkscape:rounded="0"
     inkscape:randomized="0"
     d="m 95,6 0.587785,1.1909831 1.314328,0.190983 L 95.951056,8.309017 96.17557,9.618034 95,8.9999999 93.824429,9.618034 94.048944,8.309017 93.097887,7.381966 94.412215,7.1909831 Z"
     inkscape:transform-center-y="-0.19098301"
     transform="translate(-71.587785,12.618034)" />
  <path
     sodipodi:type="star"
     style="fill:#ffffff;fill-opacity:1;stroke-width:1.88976"
     id="path11-5-38-8-14"
     inkscape:flatsided="false"
     sodipodi:sides="5"
     sodipodi:cx="95"
     sodipodi:cy="8"
     sodipodi:r1="2"
     sodipodi:r2="0.99999994"
     sodipodi:arg1="-1.5707963"
     sodipodi:arg2="-0.9424778"
     inkscape:rounded="0"
     inkscape:randomized="0"
     d="m 95,6 0.587785,1.1909831 1.314328,0.190983 L 95.951056,8.309017 96.17557,9.618034 95,8.9999999 93.824429,9.618034 94.048944,8.309017 93.097887,7.381966 94.412215,7.1909831 Z"
     inkscape:transform-center-y="-0.19098301"
     transform="translate(-65.587785,12.618034)" />
  <path
     sodipodi:type="star"
     style="fill:#ffffff;fill-opacity:1;stroke-width:1.88976"
     id="path11-5-7"
     inkscape:flatsided="false"
     sodipodi:sides="5"
     sodipodi:cx="95"
     sodipodi:cy="8"
     sodipodi:r1="2"
     sodipodi:r2="0.99999994"
     sodipodi:arg1="-1.5707963"
     sodipodi:arg2="-0.9424778"
     inkscape:rounded="0"
     inkscape:randomized="0"
     d="m 95,6 0.587785,1.1909831 1.314328,0.190983 L 95.951056,8.309017 96.17557,9.618034 95,8.9999999 93.824429,9.618034 94.048944,8.309017 93.097887,7.381966 94.412215,7.1909831 Z"
     inkscape:transform-center-y="-0.19098301"
     transform="translate(-89.587785,18.809017)" />
  <path
     sodipodi:type="star"
     style="fill:#ffffff;fill-opacity:1;stroke-width:1.88976"
     id="path11-5-2-48"
     inkscape:flatsided="false"
     sodipodi:sides="5"
     sodipodi:cx="95"
     sodipodi:cy="8"
     sodipodi:r1="2"
     sodipodi:r2="0.99999994"
     sodipodi:arg1="-1.5707963"
     sodipodi:arg2="-0.9424778"
     inkscape:rounded="0"
     inkscape:randomized="0"
     d="m 95,6 0.587785,1.1909831 1.314328,0.190983 L 95.951056,8.309017 96.17557,9.618034 95,8.9999999 93.824429,9.618034 94.048944,8.309017 93.097887,7.381966 94.412215,7.1909831 Z"
     inkscape:transform-center-y="-0.19098301"
     transform="translate(-83.587785,18.809017)" />
  <path
     sodipodi:type="star"
     style="fill:#ffffff;fill-opacity:1;stroke-width:1.88976"
     id="path11-5-1-41"
     inkscape:flatsided="false"
     sodipodi:sides="5"
     sodipodi:cx="95"
     sodipodi:cy="8"
     sodipodi:r1="2"
     sodipodi:r2="0.99999994"
     sodipodi:arg1="-1.5707963"
     sodipodi:arg2="-0.9424778"
     inkscape:rounded="0"
     inkscape:randomized="0"
     d="m 95,6 0.587785,1.1909831 1.314328,0.190983 L 95.951056,8.309017 96.17557,9.618034 95,8.9999999 93.824429,9.618034 94.048944,8.309017 93.097887,7.381966 94.412215,7.1909831 Z"
     inkscape:transform-center-y="-0.19098301"
     transform="translate(-77.587785,18.809017)" />
  <path
     sodipodi:type="star"
     style="fill:#ffffff;fill-opacity:1;stroke-width:1.88976"
     id="path11-5-38-49"
     inkscape:flatsided="false"
     sodipodi:sides="5"
     sodipodi:cx="95"
     sodipodi:cy="8"
     sodipodi:r1="2"
     sodipodi:r2="0.99999994"
     sodipodi:arg1="-1.5707963"
     sodipodi:arg2="-0.9424778"
     inkscape:rounded="0"
     inkscape:randomized="0"
     d="m 95,6 0.587785,1.1909831 1.314328,0.190983 L 95.951056,8.309017 96.17557,9.618034 95,8.9999999 93.824429,9.618034 94.048944,8.309017 93.097887,7.381966 94.412215,7.1909831 Z"
     inkscape:transform-center-y="-0.19098301"
     transform="translate(-71.587785,18.809017)" />
  <path
     sodipodi:type="star"
     style="fill:#ffffff;fill-opacity:1;stroke-width:1.88976"
     id="path11-5-38-8-12"
     inkscape:flatsided="false"
     sodipodi:sides="5"
     sodipodi:cx="95"
     sodipodi:cy="8"
     sodipodi:r1="2"
     sodipodi:r2="0.99999994"
     sodipodi:arg1="-1.5707963"
     sodipodi:arg2="-0.9424778"
     inkscape:rounded="0"
     inkscape:randomized="0"
     d="m 95,6 0.587785,1.1909831 1.314328,0.190983 L 95.951056,8.309017 96.17557,9.618034 95,8.9999999 93.824429,9.618034 94.048944,8.309017 93.097887,7.381966 94.412215,7.1909831 Z"
     inkscape:transform-center-y="-0.19098301"
     transform="translate(-65.587785,18.809017)" />
  <path
     sodipodi:type="star"
     style="fill:#ffffff;fill-opacity:1;stroke-width:1.88976"
     id="path11-5-3"
     inkscape:flatsided="false"
     sodipodi:sides="5"
     sodipodi:cx="95"
     sodipodi:cy="8"
     sodipodi:r1="2"
     sodipodi:r2="0.99999994"
     sodipodi:arg1="-1.5707963"
     sodipodi:arg2="-0.9424778"
     inkscape:rounded="0"
     inkscape:randomized="0"
     d="m 95,6 0.587785,1.1909831 1.314328,0.190983 L 95.951056,8.309017 96.17557,9.618034 95,8.9999999 93.824429,9.618034 94.048944,8.309017 93.097887,7.381966 94.412215,7.1909831 Z"
     inkscape:transform-center-y="-0.19098301"
     transform="translate(-62.587785,-5.1909831)" />
  <path
     sodipodi:type="star"
     style="fill:#ffffff;fill-opacity:1;stroke-width:1.88976"
     id="path11-5-6"
     inkscape:flatsided="false"
     sodipodi:sides="5"
     sodipodi:cx="95"
     sodipodi:cy="8"
     sodipodi:r1="2"
     sodipodi:r2="0.99999994"
     sodipodi:arg1="-1.5707963"
     sodipodi:arg2="-0.9424778"
     inkscape:rounded="0"
     inkscape:randomized="0"
     d="m 95,6 0.587785,1.1909831 1.314328,0.190983 L 95.951056,8.309017 96.17557,9.618034 95,8.9999999 93.824429,9.618034 94.048944,8.309017 93.097887,7.381966 94.412215,7.1909831 Z"
     inkscape:transform-center-y="-0.19098301"
     transform="translate(-92.587785,21.809017)" />
  <path
     sodipodi:type="star"
     style="fill:#ffffff;fill-opacity:1;stroke-width:1.88976"
     id="path11-5-2-2"
     inkscape:flatsided="false"
     sodipodi:sides="5"
     sodipodi:cx="95"
     sodipodi:cy="8"
     sodipodi:r1="2"
     sodipodi:r2="0.99999994"
     sodipodi:arg1="-1.5707963"
     sodipodi:arg2="-0.9424778"
     inkscape:rounded="0"
     inkscape:randomized="0"
     d="m 95,6 0.587785,1.1909831 1.314328,0.190983 L 95.951056,8.309017 96.17557,9.618034 95,8.9999999 93.824429,9.618034 94.048944,8.309017 93.097887,7.381966 94.412215,7.1909831 Z"
     inkscape:transform-center-y="-0.19098301"
     transform="translate(-86.587785,21.809017)" />
  <path
     sodipodi:type="star"
     style="fill:#ffffff;fill-opacity:1;stroke-width:1.88976"
     id="path11-5-1-3"
     inkscape:flatsided="false"
     sodipodi:sides="5"
     sodipodi:cx="95"
     sodipodi:cy="8"
     sodipodi:r1="2"
     sodipodi:r2="0.99999994"
     sodipodi:arg1="-1.5707963"
     sodipodi:arg2="-0.9424778"
     inkscape:rounded="0"
     inkscape:randomized="0"
     d="m 95,6 0.587785,1.1909831 1.314328,0.190983 L 95.951056,8.309017 96.17557,9.618034 95,8.9999999 93.824429,9.618034 94.048944,8.309017 93.097887,7.381966 94.412215,7.1909831 Z"
     inkscape:transform-center-y="-0.19098301"
     transform="translate(-80.587785,21.809017)" />
  <path
     sodipodi:type="star"
     style="fill:#ffffff;fill-opacity:1;stroke-width:1.88976"
     id="path11-5-38-7"
     inkscape:flatsided="false"
     sodipodi:sides="5"
     sodipodi:cx="95"
     sodipodi:cy="8"
     sodipodi:r1="2"
     sodipodi:r2="0.99999994"
     sodipodi:arg1="-1.5707963"
     sodipodi:arg2="-0.9424778"
     inkscape:rounded="0"
     inkscape:randomized="0"
     d="m 95,6 0.587785,1.1909831 1.314328,0.190983 L 95.951056,8.309017 96.17557,9.618034 95,8.9999999 93.824429,9.618034 94.048944,8.309017 93.097887,7.381966 94.412215,7.1909831 Z"
     inkscape:transform-center-y="-0.19098301"
     transform="translate(-74.587785,21.809017)" />
  <path
     sodipodi:type="star"
     style="fill:#ffffff;fill-opacity:1;stroke-width:1.88976"
     id="path11-5-38-8-7"
     inkscape:flatsided="false"
     sodipodi:sides="5"
     sodipodi:cx="95"
     sodipodi:cy="8"
     sodipodi:r1="2"
     sodipodi:r2="0.99999994"
     sodipodi:arg1="-1.5707963"
     sodipodi:arg2="-0.9424778"
     inkscape:rounded="0"
     inkscape:randomized="0"
     d="m 95,6 0.587785,1.1909831 1.314328,0.190983 L 95.951056,8.309017 96.17557,9.618034 95,8.9999999 93.824429,9.618034 94.048944,8.309017 93.097887,7.381966 94.412215,7.1909831 Z"
     inkscape:transform-center-y="-0.19098301"
     transform="translate(-68.587785,21.809017)" />
  <path
     sodipodi:type="star"
     style="fill:#ffffff;fill-opacity:1;stroke-width:1.88976"
     id="path11-5-3-0"
     inkscape:flatsided="false"
     sodipodi:sides="5"
     sodipodi:cx="95"
     sodipodi:cy="8"
     sodipodi:r1="2"
     sodipodi:r2="0.99999994"
     sodipodi:arg1="-1.5707963"
     sodipodi:arg2="-0.9424778"
     inkscape:rounded="0"
     inkscape:randomized="0"
     d="m 95,6 0.587785,1.1909831 1.314328,0.190983 L 95.951056,8.309017 96.17557,9.618034 95,8.9999999 93.824429,9.618034 94.048944,8.309017 93.097887,7.381966 94.412215,7.1909831 Z"
     inkscape:transform-center-y="-0.19098301"
     transform="translate(-62.587785,21.809017)" />
  <path
     sodipodi:type="star"
     style="fill:#ffffff;fill-opacity:1;stroke-width:1.88976"
     id="path11-5-35"
     inkscape:flatsided="false"
     sodipodi:sides="5"
     sodipodi:cx="95"
     sodipodi:cy="8"
     sodipodi:r1="2"
     sodipodi:r2="0.99999994"
     sodipodi:arg1="-1.5707963"
     sodipodi:arg2="-0.9424778"
     inkscape:rounded="0"
     inkscape:randomized="0"
     d="m 95,6 0.587785,1.1909831 1.314328,0.190983 L 95.951056,8.309017 96.17557,9.618034 95,8.9999999 93.824429,9.618034 94.048944,8.309017 93.097887,7.381966 94.412215,7.1909831 Z"
     inkscape:transform-center-y="-0.19098301"
     transform="translate(-92.587785,8.8090169)" />
  <path
     sodipodi:type="star"
     style="fill:#ffffff;fill-opacity:1;stroke-width:1.88976"
     id="path11-5-2-4"
     inkscape:flatsided="false"
     sodipodi:sides="5"
     sodipodi:cx="95"
     sodipodi:cy="8"
     sodipodi:r1="2"
     sodipodi:r2="0.99999994"
     sodipodi:arg1="-1.5707963"
     sodipodi:arg2="-0.9424778"
     inkscape:rounded="0"
     inkscape:randomized="0"
     d="m 95,6 0.587785,1.1909831 1.314328,0.190983 L 95.951056,8.309017 96.17557,9.618034 95,8.9999999 93.824429,9.618034 94.048944,8.309017 93.097887,7.381966 94.412215,7.1909831 Z"
     inkscape:transform-center-y="-0.19098301"
     transform="translate(-86.587785,8.8090169)" />
  <path
     sodipodi:type="star"
     style="fill:#ffffff;fill-opacity:1;stroke-width:1.88976"
     id="path11-5-1-5"
     inkscape:flatsided="false"
     sodipodi:sides="5"
     sodipodi:cx="95"
     sodipodi:cy="8"
     sodipodi:r1="2"
     sodipodi:r2="0.99999994"
     sodipodi:arg1="-1.5707963"
     sodipodi:arg2="-0.9424778"
     inkscape:rounded="0"
     inkscape:randomized="0"
     d="m 95,6 0.587785,1.1909831 1.314328,0.190983 L 95.951056,8.309017 96.17557,9.618034 95,8.9999999 93.824429,9.618034 94.048944,8.309017 93.097887,7.381966 94.412215,7.1909831 Z"
     inkscape:transform-center-y="-0.19098301"
     transform="translate(-80.587785,8.8090169)" />
  <path
     sodipodi:type="star"
     style="fill:#ffffff;fill-opacity:1;stroke-width:1.88976"
     id="path11-5-38-3"
     inkscape:flatsided="false"
     sodipodi:sides="5"
     sodipodi:cx="95"
     sodipodi:cy="8"
     sodipodi:r1="2"
     sodipodi:r2="0.99999994"
     sodipodi:arg1="-1.5707963"
     sodipodi:arg2="-0.9424778"
     inkscape:rounded="0"
     inkscape:randomized="0"
     d="m 95,6 0.587785,1.1909831 1.314328,0.190983 L 95.951056,8.309017 96.17557,9.618034 95,8.9999999 93.824429,9.618034 94.048944,8.309017 93.097887,7.381966 94.412215,7.1909831 Z"
     inkscape:transform-center-y="-0.19098301"
     transform="translate(-74.587785,8.8090169)" />
  <path
     sodipodi:type="star"
     style="fill:#ffffff;fill-opacity:1;stroke-width:1.88976"
     id="path11-5-38-8-6"
     inkscape:flatsided="false"
     sodipodi:sides="5"
     sodipodi:cx="95"
     sodipodi:cy="8"
     sodipodi:r1="2"
     sodipodi:r2="0.99999994"
     sodipodi:arg1="-1.5707963"
     sodipodi:arg2="-0.9424778"
     inkscape:rounded="0"
     inkscape:randomized="0"
     d="m 95,6 0.587785,1.1909831 1.314328,0.190983 L 95.951056,8.309017 96.17557,9.618034 95,8.9999999 93.824429,9.618034 94.048944,8.309017 93.097887,7.381966 94.412215,7.1909831 Z"
     inkscape:transform-center-y="-0.19098301"
     transform="translate(-68.587785,8.8090169)" />
  <path
     sodipodi:type="star"
     style="fill:#ffffff;fill-opacity:1;stroke-width:1.88976"
     id="path11-5-3-5"
     inkscape:flatsided="false"
     sodipodi:sides="5"
     sodipodi:cx="95"
     sodipodi:cy="8"
     sodipodi:r1="2"
     sodipodi:r2="0.99999994"
     sodipodi:arg1="-1.5707963"
     sodipodi:arg2="-0.9424778"
     inkscape:rounded="0"
     inkscape:randomized="0"
     d="m 95,6 0.587785,1.1909831 1.314328,0.190983 L 95.951056,8.309017 96.17557,9.618034 95,8.9999999 93.824429,9.618034 94.048944,8.309017 93.097887,7.381966 94.412215,7.1909831 Z"
     inkscape:transform-center-y="-0.19098301"
     transform="translate(-62.587785,8.8090169)" />
  <path
     sodipodi:type="star"
     style="fill:#ffffff;fill-opacity:1;stroke-width:1.88976"
     id="path11-5-63"
     inkscape:flatsided="false"
     sodipodi:sides="5"
     sodipodi:cx="95"
     sodipodi:cy="8"
     sodipodi:r1="2"
     sodipodi:r2="0.99999994"
     sodipodi:arg1="-1.5707963"
     sodipodi:arg2="-0.9424778"
     inkscape:rounded="0"
     inkscape:randomized="0"
     d="m 95,6 0.587785,1.1909831 1.314328,0.190983 L 95.951056,8.309017 96.17557,9.618034 95,8.9999999 93.824429,9.618034 94.048944,8.309017 93.097887,7.381966 94.412215,7.1909831 Z"
     inkscape:transform-center-y="-0.19098301"
     transform="translate(-92.587785,1.8090169)" />
  <path
     sodipodi:type="star"
     style="fill:#ffffff;fill-opacity:1;stroke-width:1.88976"
     id="path11-5-2-9"
     inkscape:flatsided="false"
     sodipodi:sides="5"
     sodipodi:cx="95"
     sodipodi:cy="8"
     sodipodi:r1="2"
     sodipodi:r2="0.99999994"
     sodipodi:arg1="-1.5707963"
     sodipodi:arg2="-0.9424778"
     inkscape:rounded="0"
     inkscape:randomized="0"
     d="m 95,6 0.587785,1.1909831 1.314328,0.190983 L 95.951056,8.309017 96.17557,9.618034 95,8.9999999 93.824429,9.618034 94.048944,8.309017 93.097887,7.381966 94.412215,7.1909831 Z"
     inkscape:transform-center-y="-0.19098301"
     transform="translate(-86.587785,1.8090169)" />
  <path
     sodipodi:type="star"
     style="fill:#ffffff;fill-opacity:1;stroke-width:1.88976"
     id="path11-5-1-4"
     inkscape:flatsided="false"
     sodipodi:sides="5"
     sodipodi:cx="95"
     sodipodi:cy="8"
     sodipodi:r1="2"
     sodipodi:r2="0.99999994"
     sodipodi:arg1="-1.5707963"
     sodipodi:arg2="-0.9424778"
     inkscape:rounded="0"
     inkscape:randomized="0"
     d="m 95,6 0.587785,1.1909831 1.314328,0.190983 L 95.951056,8.309017 96.17557,9.618034 95,8.9999999 93.824429,9.618034 94.048944,8.309017 93.097887,7.381966 94.412215,7.1909831 Z"
     inkscape:transform-center-y="-0.19098301"
     transform="translate(-80.587785,1.8090169)" />
  <path
     sodipodi:type="star"
     style="fill:#ffffff;fill-opacity:1;stroke-width:1.88976"
     id="path11-5-38-0"
     inkscape:flatsided="false"
     sodipodi:sides="5"
     sodipodi:cx="95"
     sodipodi:cy="8"
     sodipodi:r1="2"
     sodipodi:r2="0.99999994"
     sodipodi:arg1="-1.5707963"
     sodipodi:arg2="-0.9424778"
     inkscape:rounded="0"
     inkscape:randomized="0"
     d="m 95,6 0.587785,1.1909831 1.314328,0.190983 L 95.951056,8.309017 96.17557,9.618034 95,8.9999999 93.824429,9.618034 94.048944,8.309017 93.097887,7.381966 94.412215,7.1909831 Z"
     inkscape:transform-center-y="-0.19098301"
     transform="translate(-74.587785,1.8090169)" />
  <path
     sodipodi:type="star"
     style="fill:#ffffff;fill-opacity:1;stroke-width:1.88976"
     id="path11-5-38-8-1"
     inkscape:flatsided="false"
     sodipodi:sides="5"
     sodipodi:cx="95"
     sodipodi:cy="8"
     sodipodi:r1="2"
     sodipodi:r2="0.99999994"
     sodipodi:arg1="-1.5707963"
     sodipodi:arg2="-0.9424778"
     inkscape:rounded="0"
     inkscape:randomized="0"
     d="m 95,6 0.587785,1.1909831 1.314328,0.190983 L 95.951056,8.309017 96.17557,9.618034 95,8.9999999 93.824429,9.618034 94.048944,8.309017 93.097887,7.381966 94.412215,7.1909831 Z"
     inkscape:transform-center-y="-0.19098301"
     transform="translate(-68.587785,1.8090169)" />
  <path
     sodipodi:type="star"
     style="fill:#ffffff;fill-opacity:1;stroke-width:1.88976"
     id="path11-5-3-1"
     inkscape:flatsided="false"
     sodipodi:sides="5"
     sodipodi:cx="95"
     sodipodi:cy="8"
     sodipodi:r1="2"
     sodipodi:r2="0.99999994"
     sodipodi:arg1="-1.5707963"
     sodipodi:arg2="-0.9424778"
     inkscape:rounded="0"
     inkscape:randomized="0"
     d="m 95,6 0.587785,1.1909831 1.314328,0.190983 L 95.951056,8.309017 96.17557,9.618034 95,8.9999999 93.824429,9.618034 94.048944,8.309017 93.097887,7.381966 94.412215,7.1909831 Z"
     inkscape:transform-center-y="-0.19098301"
     transform="translate(-62.587785,1.8090169)" />
  <path
     sodipodi:type="star"
     style="fill:#ffffff;fill-opacity:1;stroke-width:1.88976"
     id="path11-5-9"
     inkscape:flatsided="false"
     sodipodi:sides="5"
     sodipodi:cx="95"
     sodipodi:cy="8"
     sodipodi:r1="2"
     sodipodi:r2="0.99999994"
     sodipodi:arg1="-1.5707963"
     sodipodi:arg2="-0.9424778"
     inkscape:rounded="0"
     inkscape:randomized="0"
     d="m 95,6 0.587785,1.1909831 1.314328,0.190983 L 95.951056,8.309017 96.17557,9.618034 95,8.9999999 93.824429,9.618034 94.048944,8.309017 93.097887,7.381966 94.412215,7.1909831 Z"
     inkscape:transform-center-y="-0.19098301"
     transform="translate(-92.587785,15.809017)" />
  <path
     sodipodi:type="star"
     style="fill:#ffffff;fill-opacity:1;stroke-width:1.88976"
     id="path11-5-2-8"
     inkscape:flatsided="false"
     sodipodi:sides="5"
     sodipodi:cx="95"
     sodipodi:cy="8"
     sodipodi:r1="2"
     sodipodi:r2="0.99999994"
     sodipodi:arg1="-1.5707963"
     sodipodi:arg2="-0.9424778"
     inkscape:rounded="0"
     inkscape:randomized="0"
     d="m 95,6 0.587785,1.1909831 1.314328,0.190983 L 95.951056,8.309017 96.17557,9.618034 95,8.9999999 93.824429,9.618034 94.048944,8.309017 93.097887,7.381966 94.412215,7.1909831 Z"
     inkscape:transform-center-y="-0.19098301"
     transform="translate(-86.587785,15.809017)" />
  <path
     sodipodi:type="star"
     style="fill:#ffffff;fill-opacity:1;stroke-width:1.88976"
     id="path11-5-1-36"
     inkscape:flatsided="false"
     sodipodi:sides="5"
     sodipodi:cx="95"
     sodipodi:cy="8"
     sodipodi:r1="2"
     sodipodi:r2="0.99999994"
     sodipodi:arg1="-1.5707963"
     sodipodi:arg2="-0.9424778"
     inkscape:rounded="0"
     inkscape:randomized="0"
     d="m 95,6 0.587785,1.1909831 1.314328,0.190983 L 95.951056,8.309017 96.17557,9.618034 95,8.9999999 93.824429,9.618034 94.048944,8.309017 93.097887,7.381966 94.412215,7.1909831 Z"
     inkscape:transform-center-y="-0.19098301"
     transform="translate(-80.587785,15.809017)" />
  <path
     sodipodi:type="star"
     style="fill:#ffffff;fill-opacity:1;stroke-width:1.88976"
     id="path11-5-38-6"
     inkscape:flatsided="false"
     sodipodi:sides="5"
     sodipodi:cx="95"
     sodipodi:cy="8"
     sodipodi:r1="2"
     sodipodi:r2="0.99999994"
     sodipodi:arg1="-1.5707963"
     sodipodi:arg2="-0.9424778"
     inkscape:rounded="0"
     inkscape:randomized="0"
     d="m 95,6 0.587785,1.1909831 1.314328,0.190983 L 95.951056,8.309017 96.17557,9.618034 95,8.9999999 93.824429,9.618034 94.048944,8.309017 93.097887,7.381966 94.412215,7.1909831 Z"
     inkscape:transform-center-y="-0.19098301"
     transform="translate(-74.587785,15.809017)" />
  <path
     sodipodi:type="star"
     style="fill:#ffffff;fill-opacity:1;stroke-width:1.88976"
     id="path11-5-38-8-19"
     inkscape:flatsided="false"
     sodipodi:sides="5"
     sodipodi:cx="95"
     sodipodi:cy="8"
     sodipodi:r1="2"
     sodipodi:r2="0.99999994"
     sodipodi:arg1="-1.5707963"
     sodipodi:arg2="-0.9424778"
     inkscape:rounded="0"
     inkscape:randomized="0"
     d="m 95,6 0.587785,1.1909831 1.314328,0.190983 L 95.951056,8.309017 96.17557,9.618034 95,8.9999999 93.824429,9.618034 94.048944,8.309017 93.097887,7.381966 94.412215,7.1909831 Z"
     inkscape:transform-center-y="-0.19098301"
     transform="translate(-68.587785,15.809017)" />
  <path
     sodipodi:type="star"
     style="fill:#ffffff;fill-opacity:1;stroke-width:1.88976"
     id="path11-5-3-7"
     inkscape:flatsided="false"
     sodipodi:sides="5"
     sodipodi:cx="95"
     sodipodi:cy="8"
     sodipodi:r1="2"
     sodipodi:r2="0.99999994"
     sodipodi:arg1="-1.5707963"
     sodipodi:arg2="-0.9424778"
     inkscape:rounded="0"
     inkscape:randomized="0"
     d="m 95,6 0.587785,1.1909831 1.314328,0.190983 L 95.951056,8.309017 96.17557,9.618034 95,8.9999999 93.824429,9.618034 94.048944,8.309017 93.097887,7.381966 94.412215,7.1909831 Z"
     inkscape:transform-center-y="-0.19098301"
     transform="translate(-62.587785,15.809017)" />
</svg>
